<svg width="269" height="90" viewBox="0 0 269 90" fill="none" xmlns="http://www.w3.org/2000/svg">
<path d="M6.16 77.2C5.04 77.2 3.96 76.98 2.92 76.54C1.88 76.1 0.96 75.48 0.16 74.68L1.44 73.2C2.2 73.9467 2.97333 74.5 3.76 74.86C4.56 75.22 5.39333 75.4 6.26 75.4C6.94 75.4 7.53333 75.3067 8.04 75.12C8.56 74.92 8.96 74.64 9.24 74.28C9.52 73.92 9.66 73.5133 9.66 73.06C9.66 72.4333 9.44 71.9533 9 71.62C8.56 71.2867 7.83333 71.0333 6.82 70.86L4.48 70.48C3.2 70.2533 2.24 69.84 1.6 69.24C0.973333 68.64 0.66 67.84 0.66 66.84C0.66 66.04 0.873333 65.34 1.3 64.74C1.72667 64.1267 2.32667 63.6533 3.1 63.32C3.88667 62.9867 4.79333 62.82 5.82 62.82C6.83333 62.82 7.82667 62.9867 8.8 63.32C9.78667 63.64 10.6733 64.1067 11.46 64.72L10.3 66.32C8.79333 65.1733 7.26667 64.6 5.72 64.6C5.10667 64.6 4.57333 64.6867 4.12 64.86C3.66667 65.0333 3.31333 65.28 3.06 65.6C2.80667 65.9067 2.68 66.2667 2.68 66.68C2.68 67.2533 2.87333 67.6933 3.26 68C3.64667 68.2933 4.28667 68.5067 5.18 68.64L7.44 69.02C8.92 69.26 10.0067 69.6933 10.7 70.32C11.3933 70.9467 11.74 71.8067 11.74 72.9C11.74 73.7533 11.5067 74.5067 11.04 75.16C10.5733 75.8 9.92 76.3 9.08 76.66C8.24 77.02 7.26667 77.2 6.16 77.2ZM17.8327 77V64.86H12.9127V63H24.8527V64.86H19.9327V77H17.8327ZM32.9098 77.22C31.6965 77.22 30.6432 76.9667 29.7498 76.46C28.8565 75.9533 28.1698 75.24 27.6898 74.32C27.2098 73.3867 26.9698 72.2867 26.9698 71.02V63H29.0698V71.02C29.0698 71.8867 29.2232 72.64 29.5298 73.28C29.8498 73.92 30.2965 74.4133 30.8698 74.76C31.4565 75.1067 32.1365 75.28 32.9098 75.28C33.7098 75.28 34.3965 75.1067 34.9698 74.76C35.5432 74.4133 35.9832 73.92 36.2898 73.28C36.6098 72.64 36.7698 71.8867 36.7698 71.02V63H38.8698V71.02C38.8698 72.2867 38.6232 73.3867 38.1298 74.32C37.6498 75.24 36.9632 75.9533 36.0698 76.46C35.1765 76.9667 34.1232 77.22 32.9098 77.22ZM44.1677 75.12H47.0477C47.781 75.12 48.461 74.9933 49.0877 74.74C49.7143 74.4733 50.261 74.1133 50.7277 73.66C51.2077 73.1933 51.5743 72.6533 51.8277 72.04C52.0943 71.4133 52.2277 70.7333 52.2277 70C52.2277 69.28 52.0943 68.6067 51.8277 67.98C51.5743 67.3533 51.2077 66.8133 50.7277 66.36C50.261 65.8933 49.7143 65.5333 49.0877 65.28C48.461 65.0133 47.781 64.88 47.0477 64.88H44.1677V75.12ZM42.0677 77V63H47.0077C48.061 63 49.0343 63.18 49.9277 63.54C50.821 63.8867 51.601 64.3733 52.2677 65C52.9343 65.6267 53.4543 66.3667 53.8277 67.22C54.201 68.0733 54.3877 69 54.3877 70C54.3877 71.0133 54.201 71.9467 53.8277 72.8C53.4677 73.64 52.9543 74.3733 52.2877 75C51.621 75.6267 50.8343 76.12 49.9277 76.48C49.0343 76.8267 48.061 77 47.0077 77H42.0677ZM57.1989 77V63H67.5189V64.84H59.2989V69.04H64.6989V70.82H59.2989V75.16H67.5989V77H57.1989ZM70.3575 77V63H72.3975L80.2175 73.4V63H82.1975V77H80.3575L72.3575 66.28V77H70.3575ZM89.5045 77V64.86H84.5845V63H96.5245V64.86H91.6045V77H89.5045ZM103.817 77.2C102.697 77.2 101.617 76.98 100.577 76.54C99.537 76.1 98.617 75.48 97.817 74.68L99.097 73.2C99.857 73.9467 100.63 74.5 101.417 74.86C102.217 75.22 103.05 75.4 103.917 75.4C104.597 75.4 105.19 75.3067 105.697 75.12C106.217 74.92 106.617 74.64 106.897 74.28C107.177 73.92 107.317 73.5133 107.317 73.06C107.317 72.4333 107.097 71.9533 106.657 71.62C106.217 71.2867 105.49 71.0333 104.477 70.86L102.137 70.48C100.857 70.2533 99.897 69.84 99.257 69.24C98.6304 68.64 98.317 67.84 98.317 66.84C98.317 66.04 98.5304 65.34 98.957 64.74C99.3837 64.1267 99.9837 63.6533 100.757 63.32C101.544 62.9867 102.45 62.82 103.477 62.82C104.49 62.82 105.484 62.9867 106.457 63.32C107.444 63.64 108.33 64.1067 109.117 64.72L107.957 66.32C106.45 65.1733 104.924 64.6 103.377 64.6C102.764 64.6 102.23 64.6867 101.777 64.86C101.324 65.0333 100.97 65.28 100.717 65.6C100.464 65.9067 100.337 66.2667 100.337 66.68C100.337 67.2533 100.53 67.6933 100.917 68C101.304 68.2933 101.944 68.5067 102.837 68.64L105.097 69.02C106.577 69.26 107.664 69.6933 108.357 70.32C109.05 70.9467 109.397 71.8067 109.397 72.9C109.397 73.7533 109.164 74.5067 108.697 75.16C108.23 75.8 107.577 76.3 106.737 76.66C105.897 77.02 104.924 77.2 103.817 77.2ZM116.722 77V63H123.202C124.122 63 124.922 63.18 125.602 63.54C126.282 63.8867 126.816 64.3733 127.202 65C127.589 65.6267 127.782 66.3533 127.782 67.18C127.782 68.0067 127.589 68.7333 127.202 69.36C126.816 69.9867 126.276 70.48 125.582 70.84C124.902 71.1867 124.109 71.36 123.202 71.36H118.822V77H116.722ZM118.822 69.58H122.982C123.809 69.58 124.462 69.3667 124.942 68.94C125.436 68.5 125.682 67.92 125.682 67.2C125.682 66.48 125.436 65.9067 124.942 65.48C124.462 65.0533 123.809 64.84 122.982 64.84H118.822V69.58ZM127.114 77L132.894 63H135.374L141.094 77H138.814L137.194 72.9H130.934L129.294 77H127.114ZM131.614 71.16H136.514L134.074 65L131.614 71.16ZM143.137 77V63H149.477C150.411 63 151.224 63.1733 151.917 63.52C152.624 63.8667 153.171 64.3533 153.557 64.98C153.957 65.5933 154.157 66.3133 154.157 67.14C154.157 68.06 153.897 68.8533 153.377 69.52C152.857 70.1867 152.157 70.6667 151.277 70.96L154.397 77H152.077L149.177 71.26H145.237V77H143.137ZM145.237 69.5H149.317C150.144 69.5 150.804 69.2933 151.297 68.88C151.804 68.4533 152.057 67.88 152.057 67.16C152.057 66.4667 151.804 65.9067 151.297 65.48C150.804 65.0533 150.144 64.84 149.317 64.84H145.237V69.5ZM160.409 77V64.86H155.489V63H167.429V64.86H162.509V77H160.409ZM169.786 77V63H171.886V77H169.786ZM182.087 77.22C181.047 77.22 180.081 77.04 179.187 76.68C178.307 76.3067 177.527 75.7933 176.847 75.14C176.181 74.4733 175.661 73.7067 175.287 72.84C174.927 71.96 174.747 71.0133 174.747 70C174.747 68.9867 174.927 68.0467 175.287 67.18C175.661 66.3 176.181 65.5333 176.847 64.88C177.527 64.2133 178.314 63.7 179.207 63.34C180.101 62.9667 181.061 62.78 182.087 62.78C182.821 62.78 183.534 62.88 184.227 63.08C184.934 63.2667 185.581 63.54 186.167 63.9C186.767 64.26 187.287 64.6933 187.727 65.2L186.327 66.64C185.807 66.0133 185.174 65.54 184.427 65.22C183.681 64.8867 182.901 64.72 182.087 64.72C181.341 64.72 180.647 64.8533 180.007 65.12C179.381 65.3867 178.834 65.76 178.367 66.24C177.901 66.7067 177.534 67.26 177.267 67.9C177.014 68.54 176.887 69.24 176.887 70C176.887 70.7467 177.014 71.44 177.267 72.08C177.534 72.72 177.907 73.28 178.387 73.76C178.867 74.24 179.427 74.6133 180.067 74.88C180.707 75.1467 181.401 75.28 182.147 75.28C182.961 75.28 183.727 75.12 184.447 74.8C185.181 74.4667 185.801 74 186.307 73.4L187.687 74.8C187.221 75.2933 186.687 75.7267 186.087 76.1C185.501 76.46 184.861 76.74 184.167 76.94C183.487 77.1267 182.794 77.22 182.087 77.22ZM190.342 77V63H192.442V77H190.342ZM195.903 77V63H202.383C203.303 63 204.103 63.18 204.783 63.54C205.463 63.8867 205.996 64.3733 206.383 65C206.769 65.6267 206.963 66.3533 206.963 67.18C206.963 68.0067 206.769 68.7333 206.383 69.36C205.996 69.9867 205.456 70.48 204.763 70.84C204.083 71.1867 203.289 71.36 202.383 71.36H198.003V77H195.903ZM198.003 69.58H202.163C202.989 69.58 203.643 69.3667 204.123 68.94C204.616 68.5 204.863 67.92 204.863 67.2C204.863 66.48 204.616 65.9067 204.123 65.48C203.643 65.0533 202.989 64.84 202.163 64.84H198.003V69.58ZM206.294 77L212.074 63H214.554L220.274 77H217.994L216.374 72.9H210.114L208.474 77H206.294ZM210.794 71.16H215.694L213.254 65L210.794 71.16ZM223.638 77V64.86H218.718V63H230.658V64.86H225.738V77H223.638ZM233.015 77V63H235.115V77H233.015ZM245.256 77.22C244.243 77.22 243.296 77.04 242.416 76.68C241.536 76.3067 240.756 75.7933 240.076 75.14C239.41 74.4733 238.89 73.7067 238.516 72.84C238.156 71.96 237.976 71.0133 237.976 70C237.976 68.9867 238.156 68.0467 238.516 67.18C238.89 66.3 239.41 65.5333 240.076 64.88C240.756 64.2133 241.536 63.7 242.416 63.34C243.296 62.9667 244.243 62.78 245.256 62.78C246.27 62.78 247.216 62.9667 248.096 63.34C248.99 63.7 249.77 64.2133 250.436 64.88C251.103 65.5333 251.623 66.3 251.996 67.18C252.37 68.0467 252.556 68.9867 252.556 70C252.556 71.0133 252.37 71.96 251.996 72.84C251.623 73.7067 251.103 74.4733 250.436 75.14C249.77 75.7933 248.99 76.3067 248.096 76.68C247.216 77.04 246.27 77.22 245.256 77.22ZM245.276 75.28C245.996 75.28 246.663 75.1467 247.276 74.88C247.903 74.6133 248.45 74.2467 248.916 73.78C249.383 73.3 249.75 72.74 250.016 72.1C250.283 71.4467 250.416 70.7467 250.416 70C250.416 69.24 250.283 68.54 250.016 67.9C249.75 67.26 249.383 66.7067 248.916 66.24C248.45 65.76 247.903 65.3867 247.276 65.12C246.663 64.8533 245.996 64.72 245.276 64.72C244.543 64.72 243.863 64.8533 243.236 65.12C242.61 65.3867 242.063 65.76 241.596 66.24C241.13 66.7067 240.763 67.26 240.496 67.9C240.243 68.54 240.116 69.2333 240.116 69.98C240.116 70.74 240.243 71.4467 240.496 72.1C240.763 72.74 241.13 73.3 241.596 73.78C242.063 74.2467 242.61 74.6133 243.236 74.88C243.863 75.1467 244.543 75.28 245.276 75.28ZM255.368 77V63H257.408L265.228 73.4V63H267.208V77H265.368L257.368 66.28V77H255.368Z" fill="#0176B3"/>
<path d="M17.475 29.275C16.125 29.275 14.8667 29.0417 13.7 28.575C12.55 28.0917 11.5833 27.4167 10.8 26.55L13 24.5C13.6667 25.2167 14.325 25.7167 14.975 26C15.6417 26.2667 16.4583 26.4 17.425 26.4C18.125 26.4 18.7333 26.3 19.25 26.1C19.7833 25.8833 20.1917 25.5833 20.475 25.2C20.775 24.8167 20.925 24.375 20.925 23.875C20.925 23.4083 20.8083 23.0083 20.575 22.675C20.3417 22.3417 20.025 22.0833 19.625 21.9C19.225 21.7 18.75 21.6 18.2 21.6H16V18.9H17.9C18.6833 18.9 19.3 18.7 19.75 18.3C20.2 17.8833 20.425 17.3167 20.425 16.6C20.425 16.1333 20.2917 15.7167 20.025 15.35C19.7583 14.9667 19.3917 14.6667 18.925 14.45C18.475 14.2333 17.9583 14.125 17.375 14.125C16.5083 14.125 15.7583 14.275 15.125 14.575C14.5083 14.875 13.8583 15.4083 13.175 16.175L10.95 14.125C11.7667 13.2083 12.7417 12.5 13.875 12C15.025 11.4833 16.2333 11.225 17.5 11.225C18.7167 11.225 19.7917 11.4417 20.725 11.875C21.6583 12.2917 22.3917 12.875 22.925 13.625C23.4583 14.375 23.725 15.2333 23.725 16.2C23.725 17.1333 23.4167 17.9667 22.8 18.7C22.1833 19.4167 21.3833 19.9167 20.4 20.2C21.5667 20.4333 22.4917 20.9 23.175 21.6C23.875 22.3 24.225 23.1417 24.225 24.125C24.225 25.1083 23.9333 25.9917 23.35 26.775C22.7667 27.5583 21.9667 28.175 20.95 28.625C19.95 29.0583 18.7917 29.275 17.475 29.275ZM36.632 29.275C35.1154 29.275 33.7737 28.9 32.607 28.15C31.457 27.3833 30.557 26.325 29.907 24.975C29.2737 23.6083 28.957 22.0333 28.957 20.25C28.957 18.45 29.2737 16.875 29.907 15.525C30.557 14.175 31.457 13.125 32.607 12.375C33.7737 11.6083 35.1154 11.225 36.632 11.225C38.1654 11.225 39.507 11.6083 40.657 12.375C41.8237 13.125 42.7237 14.175 43.357 15.525C44.007 16.875 44.332 18.45 44.332 20.25C44.332 22.0333 44.007 23.6083 43.357 24.975C42.7237 26.325 41.8237 27.3833 40.657 28.15C39.507 28.9 38.1654 29.275 36.632 29.275ZM36.632 26.3C37.532 26.3 38.307 26.0583 38.957 25.575C39.607 25.0917 40.107 24.3917 40.457 23.475C40.8237 22.5583 41.007 21.4833 41.007 20.25C41.007 19 40.8237 17.925 40.457 17.025C40.107 16.1083 39.607 15.4083 38.957 14.925C38.307 14.4417 37.532 14.2 36.632 14.2C35.7487 14.2 34.982 14.4417 34.332 14.925C33.682 15.4083 33.1737 16.1083 32.807 17.025C32.457 17.925 32.282 19 32.282 20.25C32.282 21.4833 32.457 22.5583 32.807 23.475C33.1737 24.3917 33.682 25.0917 34.332 25.575C34.982 26.0583 35.7487 26.3 36.632 26.3ZM56.4963 29.275C54.9796 29.275 53.638 28.9 52.4713 28.15C51.3213 27.3833 50.4213 26.325 49.7713 24.975C49.138 23.6083 48.8213 22.0333 48.8213 20.25C48.8213 18.45 49.138 16.875 49.7713 15.525C50.4213 14.175 51.3213 13.125 52.4713 12.375C53.638 11.6083 54.9796 11.225 56.4963 11.225C58.0296 11.225 59.3713 11.6083 60.5213 12.375C61.688 13.125 62.588 14.175 63.2213 15.525C63.8713 16.875 64.1963 18.45 64.1963 20.25C64.1963 22.0333 63.8713 23.6083 63.2213 24.975C62.588 26.325 61.688 27.3833 60.5213 28.15C59.3713 28.9 58.0296 29.275 56.4963 29.275ZM56.4963 26.3C57.3963 26.3 58.1713 26.0583 58.8213 25.575C59.4713 25.0917 59.9713 24.3917 60.3213 23.475C60.688 22.5583 60.8713 21.4833 60.8713 20.25C60.8713 19 60.688 17.925 60.3213 17.025C59.9713 16.1083 59.4713 15.4083 58.8213 14.925C58.1713 14.4417 57.3963 14.2 56.4963 14.2C55.613 14.2 54.8463 14.4417 54.1963 14.925C53.5463 15.4083 53.038 16.1083 52.6713 17.025C52.3213 17.925 52.1463 19 52.1463 20.25C52.1463 21.4833 52.3213 22.5583 52.6713 23.475C53.038 24.3917 53.5463 25.0917 54.1963 25.575C54.8463 26.0583 55.613 26.3 56.4963 26.3ZM76.3605 29.275C74.8439 29.275 73.5022 28.9 72.3355 28.15C71.1855 27.3833 70.2855 26.325 69.6355 24.975C69.0022 23.6083 68.6855 22.0333 68.6855 20.25C68.6855 18.45 69.0022 16.875 69.6355 15.525C70.2855 14.175 71.1855 13.125 72.3355 12.375C73.5022 11.6083 74.8439 11.225 76.3605 11.225C77.8939 11.225 79.2355 11.6083 80.3855 12.375C81.5522 13.125 82.4522 14.175 83.0855 15.525C83.7355 16.875 84.0605 18.45 84.0605 20.25C84.0605 22.0333 83.7355 23.6083 83.0855 24.975C82.4522 26.325 81.5522 27.3833 80.3855 28.15C79.2355 28.9 77.8939 29.275 76.3605 29.275ZM76.3605 26.3C77.2605 26.3 78.0355 26.0583 78.6855 25.575C79.3355 25.0917 79.8355 24.3917 80.1855 23.475C80.5522 22.5583 80.7355 21.4833 80.7355 20.25C80.7355 19 80.5522 17.925 80.1855 17.025C79.8355 16.1083 79.3355 15.4083 78.6855 14.925C78.0355 14.4417 77.2605 14.2 76.3605 14.2C75.4772 14.2 74.7105 14.4417 74.0605 14.925C73.4105 15.4083 72.9022 16.1083 72.5355 17.025C72.1855 17.925 72.0105 19 72.0105 20.25C72.0105 21.4833 72.1855 22.5583 72.5355 23.475C72.9022 24.3917 73.4105 25.0917 74.0605 25.575C74.7105 26.0583 75.4772 26.3 76.3605 26.3ZM96.2248 29.275C94.7081 29.275 93.3665 28.9 92.1998 28.15C91.0498 27.3833 90.1498 26.325 89.4998 24.975C88.8665 23.6083 88.5498 22.0333 88.5498 20.25C88.5498 18.45 88.8665 16.875 89.4998 15.525C90.1498 14.175 91.0498 13.125 92.1998 12.375C93.3665 11.6083 94.7081 11.225 96.2248 11.225C97.7581 11.225 99.0998 11.6083 100.25 12.375C101.416 13.125 102.316 14.175 102.95 15.525C103.6 16.875 103.925 18.45 103.925 20.25C103.925 22.0333 103.6 23.6083 102.95 24.975C102.316 26.325 101.416 27.3833 100.25 28.15C99.0998 28.9 97.7581 29.275 96.2248 29.275ZM96.2248 26.3C97.1248 26.3 97.8998 26.0583 98.5498 25.575C99.1998 25.0917 99.6998 24.3917 100.05 23.475C100.416 22.5583 100.6 21.4833 100.6 20.25C100.6 19 100.416 17.925 100.05 17.025C99.6998 16.1083 99.1998 15.4083 98.5498 14.925C97.8998 14.4417 97.1248 14.2 96.2248 14.2C95.3415 14.2 94.5748 14.4417 93.9248 14.925C93.2748 15.4083 92.7665 16.1083 92.3998 17.025C92.0498 17.925 91.8748 19 91.8748 20.25C91.8748 21.4833 92.0498 22.5583 92.3998 23.475C92.7665 24.3917 93.2748 25.0917 93.9248 25.575C94.5748 26.0583 95.3415 26.3 96.2248 26.3ZM113.714 25.775V21.375H109.614V18.8H113.714V14.4H116.364V18.8H120.464V21.375H116.364V25.775H113.714Z" fill="#C8C8C8"/>
</svg>
