<svg width="331" height="90" viewBox="0 0 331 90" fill="none" xmlns="http://www.w3.org/2000/svg">
<rect x="0.5" y="0.5" width="330" height="89" stroke="black"/>
<path d="M6.16 77.2C5.04 77.2 3.96 76.98 2.92 76.54C1.88 76.1 0.96 75.48 0.16 74.68L1.44 73.2C2.2 73.9467 2.97333 74.5 3.76 74.86C4.56 75.22 5.39333 75.4 6.26 75.4C6.94 75.4 7.53333 75.3067 8.04 75.12C8.56 74.92 8.96 74.64 9.24 74.28C9.52 73.92 9.66 73.5133 9.66 73.06C9.66 72.4333 9.44 71.9533 9 71.62C8.56 71.2867 7.83333 71.0333 6.82 70.86L4.48 70.48C3.2 70.2533 2.24 69.84 1.6 69.24C0.973333 68.64 0.66 67.84 0.66 66.84C0.66 66.04 0.873333 65.34 1.3 64.74C1.72667 64.1267 2.32667 63.6533 3.1 63.32C3.88667 62.9867 4.79333 62.82 5.82 62.82C6.83333 62.82 7.82667 62.9867 8.8 63.32C9.78667 63.64 10.6733 64.1067 11.46 64.72L10.3 66.32C8.79333 65.1733 7.26667 64.6 5.72 64.6C5.10667 64.6 4.57333 64.6867 4.12 64.86C3.66667 65.0333 3.31333 65.28 3.06 65.6C2.80667 65.9067 2.68 66.2667 2.68 66.68C2.68 67.2533 2.87333 67.6933 3.26 68C3.64667 68.2933 4.28667 68.5067 5.18 68.64L7.44 69.02C8.92 69.26 10.0067 69.6933 10.7 70.32C11.3933 70.9467 11.74 71.8067 11.74 72.9C11.74 73.7533 11.5067 74.5067 11.04 75.16C10.5733 75.8 9.92 76.3 9.08 76.66C8.24 77.02 7.26667 77.2 6.16 77.2ZM17.8327 77V64.86H12.9127V63H24.8527V64.86H19.9327V77H17.8327ZM32.9098 77.22C31.6965 77.22 30.6432 76.9667 29.7498 76.46C28.8565 75.9533 28.1698 75.24 27.6898 74.32C27.2098 73.3867 26.9698 72.2867 26.9698 71.02V63H29.0698V71.02C29.0698 71.8867 29.2232 72.64 29.5298 73.28C29.8498 73.92 30.2965 74.4133 30.8698 74.76C31.4565 75.1067 32.1365 75.28 32.9098 75.28C33.7098 75.28 34.3965 75.1067 34.9698 74.76C35.5432 74.4133 35.9832 73.92 36.2898 73.28C36.6098 72.64 36.7698 71.8867 36.7698 71.02V63H38.8698V71.02C38.8698 72.2867 38.6232 73.3867 38.1298 74.32C37.6498 75.24 36.9632 75.9533 36.0698 76.46C35.1765 76.9667 34.1232 77.22 32.9098 77.22ZM44.1677 75.12H47.0477C47.781 75.12 48.461 74.9933 49.0877 74.74C49.7143 74.4733 50.261 74.1133 50.7277 73.66C51.2077 73.1933 51.5743 72.6533 51.8277 72.04C52.0943 71.4133 52.2277 70.7333 52.2277 70C52.2277 69.28 52.0943 68.6067 51.8277 67.98C51.5743 67.3533 51.2077 66.8133 50.7277 66.36C50.261 65.8933 49.7143 65.5333 49.0877 65.28C48.461 65.0133 47.781 64.88 47.0477 64.88H44.1677V75.12ZM42.0677 77V63H47.0077C48.061 63 49.0343 63.18 49.9277 63.54C50.821 63.8867 51.601 64.3733 52.2677 65C52.9343 65.6267 53.4543 66.3667 53.8277 67.22C54.201 68.0733 54.3877 69 54.3877 70C54.3877 71.0133 54.201 71.9467 53.8277 72.8C53.4677 73.64 52.9543 74.3733 52.2877 75C51.621 75.6267 50.8343 76.12 49.9277 76.48C49.0343 76.8267 48.061 77 47.0077 77H42.0677ZM57.1989 77V63H67.5189V64.84H59.2989V69.04H64.6989V70.82H59.2989V75.16H67.5989V77H57.1989ZM70.3575 77V63H72.3975L80.2175 73.4V63H82.1975V77H80.3575L72.3575 66.28V77H70.3575ZM89.5045 77V64.86H84.5845V63H96.5245V64.86H91.6045V77H89.5045ZM103.817 77.2C102.697 77.2 101.617 76.98 100.577 76.54C99.537 76.1 98.617 75.48 97.817 74.68L99.097 73.2C99.857 73.9467 100.63 74.5 101.417 74.86C102.217 75.22 103.05 75.4 103.917 75.4C104.597 75.4 105.19 75.3067 105.697 75.12C106.217 74.92 106.617 74.64 106.897 74.28C107.177 73.92 107.317 73.5133 107.317 73.06C107.317 72.4333 107.097 71.9533 106.657 71.62C106.217 71.2867 105.49 71.0333 104.477 70.86L102.137 70.48C100.857 70.2533 99.897 69.84 99.257 69.24C98.6304 68.64 98.317 67.84 98.317 66.84C98.317 66.04 98.5304 65.34 98.957 64.74C99.3837 64.1267 99.9837 63.6533 100.757 63.32C101.544 62.9867 102.45 62.82 103.477 62.82C104.49 62.82 105.484 62.9867 106.457 63.32C107.444 63.64 108.33 64.1067 109.117 64.72L107.957 66.32C106.45 65.1733 104.924 64.6 103.377 64.6C102.764 64.6 102.23 64.6867 101.777 64.86C101.324 65.0333 100.97 65.28 100.717 65.6C100.464 65.9067 100.337 66.2667 100.337 66.68C100.337 67.2533 100.53 67.6933 100.917 68C101.304 68.2933 101.944 68.5067 102.837 68.64L105.097 69.02C106.577 69.26 107.664 69.6933 108.357 70.32C109.05 70.9467 109.397 71.8067 109.397 72.9C109.397 73.7533 109.164 74.5067 108.697 75.16C108.23 75.8 107.577 76.3 106.737 76.66C105.897 77.02 104.924 77.2 103.817 77.2ZM116.722 77V63H123.202C124.122 63 124.922 63.18 125.602 63.54C126.282 63.8867 126.816 64.3733 127.202 65C127.589 65.6267 127.782 66.3533 127.782 67.18C127.782 68.0067 127.589 68.7333 127.202 69.36C126.816 69.9867 126.276 70.48 125.582 70.84C124.902 71.1867 124.109 71.36 123.202 71.36H118.822V77H116.722ZM118.822 69.58H122.982C123.809 69.58 124.462 69.3667 124.942 68.94C125.436 68.5 125.682 67.92 125.682 67.2C125.682 66.48 125.436 65.9067 124.942 65.48C124.462 65.0533 123.809 64.84 122.982 64.84H118.822V69.58ZM127.114 77L132.894 63H135.374L141.094 77H138.814L137.194 72.9H130.934L129.294 77H127.114ZM131.614 71.16H136.514L134.074 65L131.614 71.16ZM143.137 77V63H149.477C150.411 63 151.224 63.1733 151.917 63.52C152.624 63.8667 153.171 64.3533 153.557 64.98C153.957 65.5933 154.157 66.3133 154.157 67.14C154.157 68.06 153.897 68.8533 153.377 69.52C152.857 70.1867 152.157 70.6667 151.277 70.96L154.397 77H152.077L149.177 71.26H145.237V77H143.137ZM145.237 69.5H149.317C150.144 69.5 150.804 69.2933 151.297 68.88C151.804 68.4533 152.057 67.88 152.057 67.16C152.057 66.4667 151.804 65.9067 151.297 65.48C150.804 65.0533 150.144 64.84 149.317 64.84H145.237V69.5ZM160.409 77V64.86H155.489V63H167.429V64.86H162.509V77H160.409ZM169.786 77V63H171.886V77H169.786ZM182.087 77.22C181.047 77.22 180.081 77.04 179.187 76.68C178.307 76.3067 177.527 75.7933 176.847 75.14C176.181 74.4733 175.661 73.7067 175.287 72.84C174.927 71.96 174.747 71.0133 174.747 70C174.747 68.9867 174.927 68.0467 175.287 67.18C175.661 66.3 176.181 65.5333 176.847 64.88C177.527 64.2133 178.314 63.7 179.207 63.34C180.101 62.9667 181.061 62.78 182.087 62.78C182.821 62.78 183.534 62.88 184.227 63.08C184.934 63.2667 185.581 63.54 186.167 63.9C186.767 64.26 187.287 64.6933 187.727 65.2L186.327 66.64C185.807 66.0133 185.174 65.54 184.427 65.22C183.681 64.8867 182.901 64.72 182.087 64.72C181.341 64.72 180.647 64.8533 180.007 65.12C179.381 65.3867 178.834 65.76 178.367 66.24C177.901 66.7067 177.534 67.26 177.267 67.9C177.014 68.54 176.887 69.24 176.887 70C176.887 70.7467 177.014 71.44 177.267 72.08C177.534 72.72 177.907 73.28 178.387 73.76C178.867 74.24 179.427 74.6133 180.067 74.88C180.707 75.1467 181.401 75.28 182.147 75.28C182.961 75.28 183.727 75.12 184.447 74.8C185.181 74.4667 185.801 74 186.307 73.4L187.687 74.8C187.221 75.2933 186.687 75.7267 186.087 76.1C185.501 76.46 184.861 76.74 184.167 76.94C183.487 77.1267 182.794 77.22 182.087 77.22ZM190.342 77V63H192.442V77H190.342ZM195.903 77V63H202.383C203.303 63 204.103 63.18 204.783 63.54C205.463 63.8867 205.996 64.3733 206.383 65C206.769 65.6267 206.963 66.3533 206.963 67.18C206.963 68.0067 206.769 68.7333 206.383 69.36C205.996 69.9867 205.456 70.48 204.763 70.84C204.083 71.1867 203.289 71.36 202.383 71.36H198.003V77H195.903ZM198.003 69.58H202.163C202.989 69.58 203.643 69.3667 204.123 68.94C204.616 68.5 204.863 67.92 204.863 67.2C204.863 66.48 204.616 65.9067 204.123 65.48C203.643 65.0533 202.989 64.84 202.163 64.84H198.003V69.58ZM206.294 77L212.074 63H214.554L220.274 77H217.994L216.374 72.9H210.114L208.474 77H206.294ZM210.794 71.16H215.694L213.254 65L210.794 71.16ZM223.638 77V64.86H218.718V63H230.658V64.86H225.738V77H223.638ZM233.015 77V63H235.115V77H233.015ZM245.256 77.22C244.243 77.22 243.296 77.04 242.416 76.68C241.536 76.3067 240.756 75.7933 240.076 75.14C239.41 74.4733 238.89 73.7067 238.516 72.84C238.156 71.96 237.976 71.0133 237.976 70C237.976 68.9867 238.156 68.0467 238.516 67.18C238.89 66.3 239.41 65.5333 240.076 64.88C240.756 64.2133 241.536 63.7 242.416 63.34C243.296 62.9667 244.243 62.78 245.256 62.78C246.27 62.78 247.216 62.9667 248.096 63.34C248.99 63.7 249.77 64.2133 250.436 64.88C251.103 65.5333 251.623 66.3 251.996 67.18C252.37 68.0467 252.556 68.9867 252.556 70C252.556 71.0133 252.37 71.96 251.996 72.84C251.623 73.7067 251.103 74.4733 250.436 75.14C249.77 75.7933 248.99 76.3067 248.096 76.68C247.216 77.04 246.27 77.22 245.256 77.22ZM245.276 75.28C245.996 75.28 246.663 75.1467 247.276 74.88C247.903 74.6133 248.45 74.2467 248.916 73.78C249.383 73.3 249.75 72.74 250.016 72.1C250.283 71.4467 250.416 70.7467 250.416 70C250.416 69.24 250.283 68.54 250.016 67.9C249.75 67.26 249.383 66.7067 248.916 66.24C248.45 65.76 247.903 65.3867 247.276 65.12C246.663 64.8533 245.996 64.72 245.276 64.72C244.543 64.72 243.863 64.8533 243.236 65.12C242.61 65.3867 242.063 65.76 241.596 66.24C241.13 66.7067 240.763 67.26 240.496 67.9C240.243 68.54 240.116 69.2333 240.116 69.98C240.116 70.74 240.243 71.4467 240.496 72.1C240.763 72.74 241.13 73.3 241.596 73.78C242.063 74.2467 242.61 74.6133 243.236 74.88C243.863 75.1467 244.543 75.28 245.276 75.28ZM255.368 77V63H257.408L265.228 73.4V63H267.208V77H265.368L257.368 66.28V77H255.368Z" fill="#0176B3"/>
<path d="M19.7797 29.275C18.4297 29.275 17.1714 29.0417 16.0047 28.575C14.8547 28.0917 13.888 27.4167 13.1047 26.55L15.3047 24.5C15.9714 25.2167 16.6297 25.7167 17.2797 26C17.9464 26.2667 18.763 26.4 19.7297 26.4C20.4297 26.4 21.038 26.3 21.5547 26.1C22.088 25.8833 22.4964 25.5833 22.7797 25.2C23.0797 24.8167 23.2297 24.375 23.2297 23.875C23.2297 23.4083 23.113 23.0083 22.8797 22.675C22.6464 22.3417 22.3297 22.0833 21.9297 21.9C21.5297 21.7 21.0547 21.6 20.5047 21.6H18.3047V18.9H20.2047C20.988 18.9 21.6047 18.7 22.0547 18.3C22.5047 17.8833 22.7297 17.3167 22.7297 16.6C22.7297 16.1333 22.5964 15.7167 22.3297 15.35C22.063 14.9667 21.6964 14.6667 21.2297 14.45C20.7797 14.2333 20.263 14.125 19.6797 14.125C18.813 14.125 18.063 14.275 17.4297 14.575C16.813 14.875 16.163 15.4083 15.4797 16.175L13.2547 14.125C14.0714 13.2083 15.0464 12.5 16.1797 12C17.3297 11.4833 18.538 11.225 19.8047 11.225C21.0214 11.225 22.0964 11.4417 23.0297 11.875C23.963 12.2917 24.6964 12.875 25.2297 13.625C25.763 14.375 26.0297 15.2333 26.0297 16.2C26.0297 17.1333 25.7214 17.9667 25.1047 18.7C24.488 19.4167 23.688 19.9167 22.7047 20.2C23.8714 20.4333 24.7964 20.9 25.4797 21.6C26.1797 22.3 26.5297 23.1417 26.5297 24.125C26.5297 25.1083 26.238 25.9917 25.6547 26.775C25.0714 27.5583 24.2714 28.175 23.2547 28.625C22.2547 29.0583 21.0964 29.275 19.7797 29.275ZM38.9367 29.275C37.4201 29.275 36.0784 28.9 34.9117 28.15C33.7617 27.3833 32.8617 26.325 32.2117 24.975C31.5784 23.6083 31.2617 22.0333 31.2617 20.25C31.2617 18.45 31.5784 16.875 32.2117 15.525C32.8617 14.175 33.7617 13.125 34.9117 12.375C36.0784 11.6083 37.4201 11.225 38.9367 11.225C40.4701 11.225 41.8117 11.6083 42.9617 12.375C44.1284 13.125 45.0284 14.175 45.6617 15.525C46.3117 16.875 46.6367 18.45 46.6367 20.25C46.6367 22.0333 46.3117 23.6083 45.6617 24.975C45.0284 26.325 44.1284 27.3833 42.9617 28.15C41.8117 28.9 40.4701 29.275 38.9367 29.275ZM38.9367 26.3C39.8367 26.3 40.6117 26.0583 41.2617 25.575C41.9117 25.0917 42.4117 24.3917 42.7617 23.475C43.1284 22.5583 43.3117 21.4833 43.3117 20.25C43.3117 19 43.1284 17.925 42.7617 17.025C42.4117 16.1083 41.9117 15.4083 41.2617 14.925C40.6117 14.4417 39.8367 14.2 38.9367 14.2C38.0534 14.2 37.2867 14.4417 36.6367 14.925C35.9867 15.4083 35.4784 16.1083 35.1117 17.025C34.7617 17.925 34.5867 19 34.5867 20.25C34.5867 21.4833 34.7617 22.5583 35.1117 23.475C35.4784 24.3917 35.9867 25.0917 36.6367 25.575C37.2867 26.0583 38.0534 26.3 38.9367 26.3ZM58.801 29.275C57.2843 29.275 55.9426 28.9 54.776 28.15C53.626 27.3833 52.726 26.325 52.076 24.975C51.4426 23.6083 51.126 22.0333 51.126 20.25C51.126 18.45 51.4426 16.875 52.076 15.525C52.726 14.175 53.626 13.125 54.776 12.375C55.9426 11.6083 57.2843 11.225 58.801 11.225C60.3343 11.225 61.676 11.6083 62.826 12.375C63.9926 13.125 64.8926 14.175 65.526 15.525C66.176 16.875 66.501 18.45 66.501 20.25C66.501 22.0333 66.176 23.6083 65.526 24.975C64.8926 26.325 63.9926 27.3833 62.826 28.15C61.676 28.9 60.3343 29.275 58.801 29.275ZM58.801 26.3C59.701 26.3 60.476 26.0583 61.126 25.575C61.776 25.0917 62.276 24.3917 62.626 23.475C62.9926 22.5583 63.176 21.4833 63.176 20.25C63.176 19 62.9926 17.925 62.626 17.025C62.276 16.1083 61.776 15.4083 61.126 14.925C60.476 14.4417 59.701 14.2 58.801 14.2C57.9176 14.2 57.151 14.4417 56.501 14.925C55.851 15.4083 55.3426 16.1083 54.976 17.025C54.626 17.925 54.451 19 54.451 20.25C54.451 21.4833 54.626 22.5583 54.976 23.475C55.3426 24.3917 55.851 25.0917 56.501 25.575C57.151 26.0583 57.9176 26.3 58.801 26.3ZM78.6652 29.275C77.1486 29.275 75.8069 28.9 74.6402 28.15C73.4902 27.3833 72.5902 26.325 71.9402 24.975C71.3069 23.6083 70.9902 22.0333 70.9902 20.25C70.9902 18.45 71.3069 16.875 71.9402 15.525C72.5902 14.175 73.4902 13.125 74.6402 12.375C75.8069 11.6083 77.1486 11.225 78.6652 11.225C80.1986 11.225 81.5402 11.6083 82.6902 12.375C83.8569 13.125 84.7569 14.175 85.3902 15.525C86.0402 16.875 86.3652 18.45 86.3652 20.25C86.3652 22.0333 86.0402 23.6083 85.3902 24.975C84.7569 26.325 83.8569 27.3833 82.6902 28.15C81.5402 28.9 80.1986 29.275 78.6652 29.275ZM78.6652 26.3C79.5652 26.3 80.3402 26.0583 80.9902 25.575C81.6402 25.0917 82.1402 24.3917 82.4902 23.475C82.8569 22.5583 83.0402 21.4833 83.0402 20.25C83.0402 19 82.8569 17.925 82.4902 17.025C82.1402 16.1083 81.6402 15.4083 80.9902 14.925C80.3402 14.4417 79.5652 14.2 78.6652 14.2C77.7819 14.2 77.0152 14.4417 76.3652 14.925C75.7152 15.4083 75.2069 16.1083 74.8402 17.025C74.4902 17.925 74.3152 19 74.3152 20.25C74.3152 21.4833 74.4902 22.5583 74.8402 23.475C75.2069 24.3917 75.7152 25.0917 76.3652 25.575C77.0152 26.0583 77.7819 26.3 78.6652 26.3ZM98.5295 29.275C97.0128 29.275 95.6712 28.9 94.5045 28.15C93.3545 27.3833 92.4545 26.325 91.8045 24.975C91.1712 23.6083 90.8545 22.0333 90.8545 20.25C90.8545 18.45 91.1712 16.875 91.8045 15.525C92.4545 14.175 93.3545 13.125 94.5045 12.375C95.6712 11.6083 97.0128 11.225 98.5295 11.225C100.063 11.225 101.404 11.6083 102.554 12.375C103.721 13.125 104.621 14.175 105.254 15.525C105.904 16.875 106.229 18.45 106.229 20.25C106.229 22.0333 105.904 23.6083 105.254 24.975C104.621 26.325 103.721 27.3833 102.554 28.15C101.404 28.9 100.063 29.275 98.5295 29.275ZM98.5295 26.3C99.4295 26.3 100.204 26.0583 100.854 25.575C101.504 25.0917 102.004 24.3917 102.354 23.475C102.721 22.5583 102.904 21.4833 102.904 20.25C102.904 19 102.721 17.925 102.354 17.025C102.004 16.1083 101.504 15.4083 100.854 14.925C100.204 14.4417 99.4295 14.2 98.5295 14.2C97.6462 14.2 96.8795 14.4417 96.2295 14.925C95.5795 15.4083 95.0712 16.1083 94.7045 17.025C94.3545 17.925 94.1795 19 94.1795 20.25C94.1795 21.4833 94.3545 22.5583 94.7045 23.475C95.0712 24.3917 95.5795 25.0917 96.2295 25.575C96.8795 26.0583 97.6462 26.3 98.5295 26.3ZM116.019 25.775V21.375H111.919V18.8H116.019V14.4H118.669V18.8H122.769V21.375H118.669V25.775H116.019Z" fill="#C8C8C8"/>
</svg>
