<?xml version="1.0" standalone="no"?>
<!DOCTYPE svg PUBLIC "-//W3C//DTD SVG 1.1//EN" "http://www.w3.org/Graphics/SVG/1.1/DTD/svg11.dtd" >
<svg xmlns="http://www.w3.org/2000/svg" xmlns:xlink="http://www.w3.org/1999/xlink" version="1.1">
<metadata>
Created by FontForge 20170731 at Thu Oct 18 13:15:49 2018
 By Aleksey,,,
Copyright 2018 Adobe Systems Incorporated. All rights reserved.
</metadata>
<defs>
<font id="AzonixRegular" horiz-adv-x="800" >
  <font-face 
    font-family="Azonix"
    font-weight="400"
    font-stretch="normal"
    units-per-em="1000"
    panose-1="0 0 0 0 0 0 0 0 0 0"
    ascent="800"
    descent="-200"
    x-height="699"
    cap-height="700"
    bbox="9 -183 928 789"
    underline-thickness="0"
    underline-position="0"
    unicode-range="U+000A-20AC"
  />
<missing-glyph horiz-adv-x="527" 
d="M50 700h427v-700h-427v700zM78 680l185 -309l186 309h-371zM251 350l-180 300v-601zM264 329l-185 -308h370zM276 350l181 -303v605z" />
    <glyph glyph-name=".notdef" horiz-adv-x="527" 
d="M50 700h427v-700h-427v700zM78 680l185 -309l186 309h-371zM251 350l-180 300v-601zM264 329l-185 -308h370zM276 350l181 -303v605z" />
    <glyph glyph-name=".null" horiz-adv-x="100" 
 />
    <glyph glyph-name=".null" horiz-adv-x="100" 
 />
    <glyph glyph-name="nonmarkingreturn" horiz-adv-x="333" 
 />
    <glyph glyph-name="controlLF" unicode="&#xa;" horiz-adv-x="100" 
 />
    <glyph glyph-name="controlCR" unicode="&#xd;" horiz-adv-x="100" 
 />
    <glyph glyph-name="space" unicode=" " horiz-adv-x="487" 
 />
    <glyph glyph-name="exclam" unicode="!" horiz-adv-x="225" 
d="M175 -7h-125v125h125v-125zM50 693h125v-168l-33 -356h-59l-33 356v168z" />
    <glyph glyph-name="quotedbl" unicode="&#x22;" horiz-adv-x="384" 
d="M334 504h-125v246h125v-246zM174 504h-125v246h125v-246z" />
    <glyph glyph-name="numbersign" unicode="#" horiz-adv-x="803" 
d="M591 410l-25 -132l-1 -4h138l-24 -121l-1 -4h-138l-31 -157h-127v0l31 157h-98l-31 -157h-127v0l7 34l12 64l12 59h-137l6 30l16 84l3 12h137l1 6l26 129v0h-137l25 124v1v0h137v0v0l31 157h127l-31 -157h98l31 157h126l-31 -157h138l-25 -125h-138zM465 410l1 1h-98
l-26 -132l-1 -4h97l1 4z" />
    <glyph glyph-name="dollar" unicode="$" horiz-adv-x="762" 
d="M712 461h-125v4q0 26 -19 45t-45 19h-79v-132h47h6h26q76 0 131 -53q14 -14 24 -30q33 -47 33 -107v-4q0 -78 -55 -133.5t-133 -55.5h-80v-126h-125v126h-79q-78 0 -133.5 55.5t-55.5 133.5v4h125v-4q0 -26 19 -45t45 -19h79v132h-47h-6h-26q-76 0 -131 53q-14 14 -24 30
q-33 47 -33 107v4q0 78 55 133.5t133 55.5h80v135h125v-135h79q78 0 133.5 -55.5t55.5 -133.5v-4zM318 397v132h-80q-26 0 -45 -19t-19 -45v-4q0 -26 19 -45t45 -19h80zM523 272h-80v-132h80q26 0 45 19t19 45v4q0 26 -19 45t-45 19z" />
    <glyph glyph-name="percent" unicode="%" horiz-adv-x="928" 
d="M572 685h141l-368 -700h-141zM699 340q73 0 125 -52t52 -125t-52 -125t-125 -52t-125 52t-52 125t52 125t125 52zM699 110q22 0 37.5 15.5t15.5 37.5t-15.5 37.5t-37.5 15.5t-37.5 -15.5t-15.5 -37.5t15.5 -37.5t37.5 -15.5zM404 508q0 -74 -52 -125.5t-125 -51.5
t-125 51.5t-52 125.5t52 125.5t125 51.5t125 -51.5t52 -125.5zM174 508q0 -22 15.5 -37.5t37.5 -15.5t37.5 15.5t15.5 37.5t-15.5 37.5t-37.5 15.5t-37.5 -15.5t-15.5 -37.5z" />
    <glyph glyph-name="ampersand" unicode="&#x26;" horiz-adv-x="791" 
d="M256 413l486 3v-126h-125v-287h-361q-85 0 -145 60t-60 145q0 84 58 144q-58 60 -58 144q0 85 60 145t145 60h361v-125h-361q-33 0 -57 -24t-24 -57q0 -34 24 -58t57 -24zM493 128v163h-236q-33 0 -57 -24t-24 -58q0 -33 24 -57t57 -24h236z" />
    <glyph glyph-name="quotesingle" unicode="'" horiz-adv-x="225" 
d="M175 502h-125v248h125v-248z" />
    <glyph glyph-name="parenleft" unicode="(" horiz-adv-x="400" 
d="M350 742h-1q-24 -27 -46.5 -57.5t-52 -85t-48 -111.5t-25.5 -134.5t5.5 -155t54.5 -172t113 -187.5h-153q-75 115 -111 232t-37 210.5t22 185.5t53 154.5t70 120.5h156z" />
    <glyph glyph-name="parenright" unicode=")" horiz-adv-x="400" 
d="M206 742h-1q40 -58 70 -120.5t53 -154.5t22 -185.5t-37 -210.5t-111 -232h-153q71 93 113 187.5t54.5 172t5.5 155t-25.5 134.5t-48 111.5t-52 85t-46.5 57.5h156z" />
    <glyph glyph-name="asterisk" unicode="*" horiz-adv-x="387" 
d="M233 589h-1l69 -81l-54 -39l-54 93l-54 -93l-54 39l69 81l-105 24l21 66l99 -42l-9 105h69q-8 -70 -11 -105l99 42l21 -66z" />
    <glyph glyph-name="plus" unicode="+" horiz-adv-x="574" 
d="M350 393h175v-125h-175v-175h-125v175h-175v125h175v175h125v-175z" />
    <glyph glyph-name="comma" unicode="," horiz-adv-x="225" 
d="M50 118h124v-250h-62l-62 125v125z" />
    <glyph glyph-name="hyphen" unicode="-" horiz-adv-x="574" 
d="M524 268h-474v125h474v-125z" />
    <glyph glyph-name="period" unicode="." horiz-adv-x="225" 
d="M175 -7h-125v125h125v-125z" />
    <glyph glyph-name="slash" unicode="/" horiz-adv-x="428" 
d="M248 685h130l-72 -255l-35 -125l-91 -320h-130l91 320l35 125z" />
    <glyph glyph-name="zero" unicode="0" horiz-adv-x="769" 
d="M492 575h-216q-42 0 -72 -30t-30 -72v-247q0 -42 30 -72t72 -30h216q42 0 72 30t30 72v247q0 42 -30 72t-72 30zM276 700h216q94 0 160 -66t66 -160v-247q0 -94 -66 -160t-160 -66h-216q-94 0 -160 66t-66 160v247q0 94 66 160t160 66z" />
    <glyph glyph-name="one" unicode="1" horiz-adv-x="338" 
d="M288 465l2 2v-476h-125v489q-5 33 -28.5 56.5t-56.5 28.5h-12h-16v124h15v0h12v-1q45 -3 85 -23q69 -34 101 -102q11 -24 17 -47q6 -24 6 -51z" />
    <glyph glyph-name="two" unicode="2" 
d="M175 125l572 -2v-125h-493h-205v206q0 42 17 81q23 55 72 89.5t110 36.5h300h3q32 3 53 26.5t21 54.5q0 34 -23.5 58t-57.5 24h-493v125h493q86 0 146 -60.5t60 -145.5q0 -42 -17 -81q-15 -35 -42 -62q-58 -60 -141 -63h-3h-3h-296q-31 -3 -52 -26.5t-21 -54.5v-81z" />
    <glyph glyph-name="three" unicode="3" 
d="M750 491l-1 -3q0 -84 -58 -144q58 -60 58 -144q0 -86 -60.5 -146t-145.5 -60h-493v125h493q34 0 58 24t24 58q0 33 -22.5 56.5t-54.5 25.5h-3h-369v125h369h3q32 2 55 25.5t23 56.5q0 34 -24 58t-58 24h-493v125h493q86 0 146 -60.5t60 -145.5z" />
    <glyph glyph-name="four" unicode="4" 
d="M625 700h124v-700h-125v288h-369q-51 0 -94 23q-51 26 -81.5 75t-30.5 108v206h125v-206q0 -34 24 -58t58 -24h369v288z" />
    <glyph glyph-name="five" unicode="5" 
d="M733 285l-1 -1q17 -39 17 -81q0 -85 -60.5 -145.5t-145.5 -60.5h-493v125h493q34 0 57.5 24t23.5 58q0 32 -20.5 55t-51.5 26h-502v412h641v-125h-516v-162h369h7q61 -1 110 -35.5t72 -89.5z" />
    <glyph glyph-name="six" unicode="6" 
d="M691 350l-1 3q58 -60 58 -144q0 -85 -60 -145.5t-146 -60.5h-287q-64 0 -115 35t-75 91q-16 40 -16 81v287q0 77 52 135q26 29 60 47q43 23 94 23h435v-125h-435q-34 0 -58 -24t-24 -58v-98q38 16 78 16h1h3h287h3h1q85 -1 145 -63v0zM542 128h-1q34 0 58 24t24 58
q0 33 -22.5 56.5t-54.5 25.5h-1h-3h-287h-3h-1q-32 -2 -55 -25.5t-23 -56.5q0 -34 24 -58t58 -24h287z" />
    <glyph glyph-name="seven" unicode="7" horiz-adv-x="677" 
d="M604 575v1q23 -46 23 -98v-477h-125v489q-4 33 -28 56.5t-57 28.5h-367v125h355q52 0 98 -23q69 -34 101 -102z" />
    <glyph glyph-name="eight" unicode="8" 
d="M691 350l2 -1q58 -60 58 -144q0 -85 -60.5 -145.5t-145.5 -60.5h-287q-64 0 -115 35t-75 91q-16 40 -16 81q0 84 58 144q-29 29 -43 63q-16 40 -16 81q0 84 58 144q29 31 66 47q38 16 78 16h3h287h3q85 -1 145 -63q58 -60 58 -144t-58 -144zM545 124l-4 -1q34 0 58 24
t24 58q0 33 -22.5 56.5t-54.5 25.5h-3h-287h-3q-32 -1 -54.5 -25t-22.5 -56q0 -34 24 -58t58 -24h287zM543 410h-3q33 1 56.5 24.5t23.5 56.5t-22.5 56.5t-54.5 25.5h-295q-32 -2 -55 -25.5t-23 -56.5t23.5 -56.5t56.5 -24.5h3h287h3z" />
    <glyph glyph-name="nine" unicode="9" 
d="M733 574h1q16 -40 16 -81v-287q0 -91 -66 -152q-22 -20 -46 -33q-43 -23 -94 -23h-435v125h435q34 0 58 24t24 58v98q-38 -16 -78 -16h-1h-3h-287h-3h-1q-85 1 -145 63q-58 60 -58 144q0 86 60 146t146 60h287q64 0 115 -35t75 -91zM257 575q-34 0 -58 -24t-24 -58
q0 -33 23 -56.5t55 -25.5h1h3h287h3h1q32 2 55 25.5t23 56.5q0 34 -24 58t-58 24h-287z" />
    <glyph glyph-name="colon" unicode=":" horiz-adv-x="225" 
d="M175 -7h-125v125h125v-125zM175 375h-125v125h125v-125z" />
    <glyph glyph-name="semicolon" unicode=";" horiz-adv-x="225" 
d="M50 -7l-1 125h125v-250h-62zM174 375h-125v125h125v-125z" />
    <glyph glyph-name="less" unicode="&#x3c;" horiz-adv-x="574" 
d="M414 397l-64 -22l-113 -40l113 -40l64 -23l111 -39v-133l-175 62l-125 44l-175 62v133l175 62l125 44l175 62v-133z" />
    <glyph glyph-name="equal" unicode="=" horiz-adv-x="574" 
d="M524 367h-474v125h474v-125zM524 156h-474v125h474v-125z" />
    <glyph glyph-name="greater" unicode="&#x3e;" horiz-adv-x="574" 
d="M350 462l175 -63v-133l-175 -62l-125 -44l-175 -62v133l111 39l64 23l113 40l-113 40l-64 23l-111 39v133l175 -62z" />
    <glyph glyph-name="question" unicode="?" horiz-adv-x="762" 
d="M443 -7h-125v125h125v-125zM688 568v2q23 -46 23 -99q0 -92 -65.5 -157.5t-157.5 -65.5h-45v-78h-125v202h170q40 0 69 29t29 69t-29 69t-69 29h-215q-41 0 -69.5 -29t-28.5 -69h-125q0 52 23 98q27 56 81 90.5t119 34.5h215q65 0 119 -34.5t81 -90.5z" />
    <glyph glyph-name="at" unicode="@" 
d="M400 693l349 1v-450h-349v0q-41 0 -70.5 29.5t-29.5 70.5t29.5 70.5t70.5 29.5v0h100v-76h125v200h-225q-93 0 -159 -66t-66 -159t66 -159t159 -66h350v-125h-350q-145 0 -247.5 102.5t-102.5 247.5t102.5 247.5t247.5 102.5z" />
    <glyph glyph-name="A" unicode="A" horiz-adv-x="735" 
d="M661 125l64 -125h-140l-64 125l-153 300l-153 -300l-64 -125h-140l64 125l293 575z" />
    <glyph glyph-name="A" unicode="&#xc5;" horiz-adv-x="735" 
d="M661 125l64 -125h-140l-64 125l-153 300l-153 -300l-64 -125h-140l64 125l293 575z" />
    <glyph glyph-name="A" unicode="&#xc4;" horiz-adv-x="735" 
d="M661 125l64 -125h-140l-64 125l-153 300l-153 -300l-64 -125h-140l64 125l293 575z" />
    <glyph glyph-name="A" unicode="&#xc3;" horiz-adv-x="735" 
d="M661 125l64 -125h-140l-64 125l-153 300l-153 -300l-64 -125h-140l64 125l293 575z" />
    <glyph glyph-name="A" unicode="&#xc2;" horiz-adv-x="735" 
d="M661 125l64 -125h-140l-64 125l-153 300l-153 -300l-64 -125h-140l64 125l293 575z" />
    <glyph glyph-name="A" unicode="&#xc1;" horiz-adv-x="735" 
d="M661 125l64 -125h-140l-64 125l-153 300l-153 -300l-64 -125h-140l64 125l293 575z" />
    <glyph glyph-name="A" unicode="&#xc0;" horiz-adv-x="735" 
d="M661 125l64 -125h-140l-64 125l-153 300l-153 -300l-64 -125h-140l64 125l293 575z" />
    <glyph glyph-name="B" unicode="B" horiz-adv-x="775" 
d="M650 409q46 -31 73 -80t27 -106q0 -92 -65.5 -157.5t-157.5 -65.5h-477v0v700h441q78 0 133.5 -55.5t55.5 -133.5q0 -56 -30 -102zM175 575v-128h317q26 0 45 19t19 45t-19 45t-45 19h-317zM527 125v1q41 0 69.5 29t28.5 69t-28.5 69t-69.5 29h-352v-197h352z" />
    <glyph glyph-name="C" unicode="C" horiz-adv-x="790" 
d="M390 575q-93 0 -159 -66t-66 -159t66 -159t159 -66h350v-125h-350q-145 0 -247.5 102.5t-102.5 247.5t102.5 247.5t247.5 102.5h350v-125h-350z" />
    <glyph glyph-name="C" unicode="&#xc7;" horiz-adv-x="790" 
d="M390 575q-93 0 -159 -66t-66 -159t66 -159t159 -66h350v-125h-350q-145 0 -247.5 102.5t-102.5 247.5t102.5 247.5t247.5 102.5h350v-125h-350z" />
    <glyph glyph-name="D" unicode="D" 
d="M50 700l349 -1q145 0 247.5 -102t102.5 -247q0 -129 -83 -226q-6 -7 -20 -21q-101 -103 -246 -103h-350v700zM174 574v-450h225q93 0 159 66t66 159t-66 159t-159 66h-225z" />
    <glyph glyph-name="E" unicode="E" 
d="M239 575q-26 0 -45 -19t-19 -45v-65h450v-125h-450v-132q0 -26 19 -45t45 -19h511v-125h-511q-78 0 -133 55.5t-55 133.5v322q0 78 55 133.5t133 55.5h511v-125h-511z" />
    <glyph glyph-name="E" unicode="&#xcb;" 
d="M239 575q-26 0 -45 -19t-19 -45v-65h450v-125h-450v-132q0 -26 19 -45t45 -19h511v-125h-511q-78 0 -133 55.5t-55 133.5v322q0 78 55 133.5t133 55.5h511v-125h-511z" />
    <glyph glyph-name="E" unicode="&#xca;" 
d="M239 575q-26 0 -45 -19t-19 -45v-65h450v-125h-450v-132q0 -26 19 -45t45 -19h511v-125h-511q-78 0 -133 55.5t-55 133.5v322q0 78 55 133.5t133 55.5h511v-125h-511z" />
    <glyph glyph-name="E" unicode="&#xc9;" 
d="M239 575q-26 0 -45 -19t-19 -45v-65h450v-125h-450v-132q0 -26 19 -45t45 -19h511v-125h-511q-78 0 -133 55.5t-55 133.5v322q0 78 55 133.5t133 55.5h511v-125h-511z" />
    <glyph glyph-name="E" unicode="&#xc8;" 
d="M239 575q-26 0 -45 -19t-19 -45v-65h450v-125h-450v-132q0 -26 19 -45t45 -19h511v-125h-511q-78 0 -133 55.5t-55 133.5v322q0 78 55 133.5t133 55.5h511v-125h-511z" />
    <glyph glyph-name="F" unicode="F" 
d="M239 700h512v-125h-511q-26 0 -45 -19t-19 -45v-65h450v-125h-451v-321h-124v511q0 78 55 133.5t133 55.5z" />
    <glyph glyph-name="G" unicode="G" 
d="M400 575q-93 0 -159 -66t-66 -159t66 -159t159 -66h225v134h-225v125h350v-384h-350q-145 0 -247.5 102.5t-102.5 247.5t102.5 247.5t247.5 102.5h350v-125h-350z" />
    <glyph glyph-name="H" unicode="H" 
d="M625 700h125v-700h-125v321h-450v-321h-125v700h125v-254h450v254z" />
    <glyph glyph-name="I" unicode="I" horiz-adv-x="225" 
d="M175 0h-125v700h125v-700z" />
    <glyph glyph-name="I" unicode="&#xcf;" horiz-adv-x="225" 
d="M175 0h-125v700h125v-700z" />
    <glyph glyph-name="I" unicode="&#xce;" horiz-adv-x="225" 
d="M175 0h-125v700h125v-700z" />
    <glyph glyph-name="I" unicode="&#xcd;" horiz-adv-x="225" 
d="M175 0h-125v700h125v-700z" />
    <glyph glyph-name="I" unicode="&#xcc;" horiz-adv-x="225" 
d="M175 0h-125v700h125v-700z" />
    <glyph glyph-name="J" unicode="J" 
d="M625 700h125v-511q0 -78 -55.5 -133t-133.5 -55h-322q-78 0 -133.5 55t-55.5 133v131h125v-131q0 -26 19 -45t45 -19h322q26 0 45 19t19 45v511z" />
    <glyph glyph-name="K" unicode="K" 
d="M750 700l-306 -281l303 -419h-154l-242 334l-177 -161v-173h-125v700h125v-358l103 94l93 85l195 179h185z" />
    <glyph glyph-name="L" unicode="L" horiz-adv-x="677" 
d="M260 125l367 -1v-125h-355q-52 0 -98 23q-69 34 -101 102q-23 46 -23 98v477h125v-489q5 -33 28.5 -57t56.5 -28z" />
    <glyph glyph-name="M" unicode="M" 
d="M625 604l125 96v-700h-125v446l-123 -94l-102 -79l-102 79l-123 94v-446h-125v700l125 -96l225 -173z" />
    <glyph glyph-name="N" unicode="N" 
d="M625 700l125 -1v-700l-125 96l-450 347v-443h-125v698l125 -96l450 -347v446z" />
    <glyph glyph-name="N" unicode="&#xd1;" 
d="M625 700l125 -1v-700l-125 96l-450 347v-443h-125v698l125 -96l450 -347v446z" />
    <glyph glyph-name="O" unicode="O" horiz-adv-x="750" 
d="M375 700q145 0 247.5 -102.5t102.5 -247.5t-102.5 -247.5t-247.5 -102.5t-247.5 102.5t-102.5 247.5t102.5 247.5t247.5 102.5zM375 125q93 0 159 66t66 159t-66 159t-159 66t-159 -66t-66 -159t66 -159t159 -66z" />
    <glyph glyph-name="O" unicode="&#xd8;" horiz-adv-x="750" 
d="M375 700q145 0 247.5 -102.5t102.5 -247.5t-102.5 -247.5t-247.5 -102.5t-247.5 102.5t-102.5 247.5t102.5 247.5t247.5 102.5zM375 125q93 0 159 66t66 159t-66 159t-159 66t-159 -66t-66 -159t66 -159t159 -66z" />
    <glyph glyph-name="O" unicode="&#xd6;" horiz-adv-x="750" 
d="M375 700q145 0 247.5 -102.5t102.5 -247.5t-102.5 -247.5t-247.5 -102.5t-247.5 102.5t-102.5 247.5t102.5 247.5t247.5 102.5zM375 125q93 0 159 66t66 159t-66 159t-159 66t-159 -66t-66 -159t66 -159t159 -66z" />
    <glyph glyph-name="O" unicode="&#xd5;" horiz-adv-x="750" 
d="M375 700q145 0 247.5 -102.5t102.5 -247.5t-102.5 -247.5t-247.5 -102.5t-247.5 102.5t-102.5 247.5t102.5 247.5t247.5 102.5zM375 125q93 0 159 66t66 159t-66 159t-159 66t-159 -66t-66 -159t66 -159t159 -66z" />
    <glyph glyph-name="O" unicode="&#xd4;" horiz-adv-x="750" 
d="M375 700q145 0 247.5 -102.5t102.5 -247.5t-102.5 -247.5t-247.5 -102.5t-247.5 102.5t-102.5 247.5t102.5 247.5t247.5 102.5zM375 125q93 0 159 66t66 159t-66 159t-159 66t-159 -66t-66 -159t66 -159t159 -66z" />
    <glyph glyph-name="O" unicode="&#xd3;" horiz-adv-x="750" 
d="M375 700q145 0 247.5 -102.5t102.5 -247.5t-102.5 -247.5t-247.5 -102.5t-247.5 102.5t-102.5 247.5t102.5 247.5t247.5 102.5zM375 125q93 0 159 66t66 159t-66 159t-159 66t-159 -66t-66 -159t66 -159t159 -66z" />
    <glyph glyph-name="O" unicode="&#xd2;" horiz-adv-x="750" 
d="M375 700q145 0 247.5 -102.5t102.5 -247.5t-102.5 -247.5t-247.5 -102.5t-247.5 102.5t-102.5 247.5t102.5 247.5t247.5 102.5zM375 125q93 0 159 66t66 159t-66 159t-159 66t-159 -66t-66 -159t66 -159t159 -66z" />
    <glyph glyph-name="P" unicode="P" horiz-adv-x="730" 
d="M625 645l1 -2q55 -55 55 -133q0 -56 -30.5 -102.5t-79.5 -69.5q-25 -12 -54 -15h-6v-1h-335v-322h-125v700v0h441q78 0 133 -55zM519 451v1q38 17 38 58q0 27 -19 46q-18 18 -45 18h-317v-129h317q14 0 26 6z" />
    <glyph glyph-name="Q" unicode="Q" 
d="M750 350h-1q0 -127 -82 -225h82v-125h-346h-3q-145 0 -247.5 102.5t-102.5 247.5t102.5 247.5t247.5 102.5t247.5 -102.5t102.5 -247.5zM405 125q91 2 155 68t64 157q0 93 -66 159t-159 66t-159 -66t-66 -159t66 -159t159 -66h6z" />
    <glyph glyph-name="R" unicode="R" horiz-adv-x="730" 
d="M515 323l100 -199l64 -125h-140l-64 125l-67 131l-3 6q-37 60 -106 60h-125v-322h-125v700h442q78 0 133 -55q55 -57 55 -134q0 -56 -30.5 -102.5t-79.5 -69.5q-25 -12 -54 -15zM174 445l317 1q14 0 26 6q38 17 38 58q0 27 -19 46q-18 18 -45 18h-317v-129z" />
    <glyph glyph-name="S" unicode="S" horiz-adv-x="762" 
d="M712 507l-125 -1v4q0 26 -19 45t-45 19h-284q-26 0 -45 -19t-19 -45v-4q0 -26 19 -45t45 -19h252q98 0 163 -72q2 -2 4.5 -5t3.5 -4q50 -61 50 -140q0 -91 -65 -156t-156 -65h-219q-92 0 -156.5 65t-64.5 156h125q0 -40 28 -68t68 -28h219q40 0 68.5 28t28.5 68t-28.5 68
t-68.5 28h-252q-76 0 -131 53q-14 14 -24 30q-33 47 -33 107v4q0 78 55 133.5t133 55.5h284q78 0 133.5 -55.5t55.5 -133.5v-4z" />
    <glyph glyph-name="T" unicode="T" 
d="M50 699h699v-125h-287v-575h-125v575h-287v125z" />
    <glyph glyph-name="U" unicode="U" 
d="M625 700h125v-350q0 -145 -102.5 -247.5t-247.5 -102.5t-247.5 102.5t-102.5 247.5v350h125v-350q0 -93 66 -159t159 -66t159 66t66 159v350z" />
    <glyph glyph-name="U" unicode="&#xdc;" 
d="M625 700h125v-350q0 -145 -102.5 -247.5t-247.5 -102.5t-247.5 102.5t-102.5 247.5v350h125v-350q0 -93 66 -159t159 -66t159 66t66 159v350z" />
    <glyph glyph-name="U" unicode="&#xdb;" 
d="M625 700h125v-350q0 -145 -102.5 -247.5t-247.5 -102.5t-247.5 102.5t-102.5 247.5v350h125v-350q0 -93 66 -159t159 -66t159 66t66 159v350z" />
    <glyph glyph-name="U" unicode="&#xda;" 
d="M625 700h125v-350q0 -145 -102.5 -247.5t-247.5 -102.5t-247.5 102.5t-102.5 247.5v350h125v-350q0 -93 66 -159t159 -66t159 66t66 159v350z" />
    <glyph glyph-name="U" unicode="&#xd9;" 
d="M625 700h125v-350q0 -145 -102.5 -247.5t-247.5 -102.5t-247.5 102.5t-102.5 247.5v350h125v-350q0 -93 66 -159t159 -66t159 66t66 159v350z" />
    <glyph glyph-name="V" unicode="V" horiz-adv-x="735" 
d="M584 700h140l-64 -125l-293 -575l-293 575l-64 125h140l64 -125l153 -300l153 300z" />
    <glyph glyph-name="W" unicode="W" horiz-adv-x="978" 
d="M928 700l-164 -549l-45 -151v0l-92 128l-139 191l-138 -191l-92 -127v0l-45 150l-163 549h130l126 -422v0l106 147l20 28l57 78l57 -78l20 -28l106 -147l126 422h130z" />
    <glyph glyph-name="X" unicode="X" horiz-adv-x="750" 
d="M25 -3v2h2zM725 -1v-2l-1 2h1zM725 699h2l-271 -351l270 -349h-158l-191 247l-191 -247h-158l269 349l-271 351h158l192 -249l192 249h157z" />
    <glyph glyph-name="Y" unicode="Y" horiz-adv-x="721" 
d="M553 701h157l-271 -351l-15 -19v-330h-125v328l-17 21l-271 351h158l192 -249zM10 -2v2h2zM710 -2l-1 2h1v-2z" />
    <glyph glyph-name="Y" unicode="&#xdd;" horiz-adv-x="721" 
d="M553 701h157l-271 -351l-15 -19v-330h-125v328l-17 21l-271 351h158l192 -249zM10 -2v2h2zM710 -2l-1 2h1v-2z" />
    <glyph glyph-name="Z" unicode="Z" 
d="M306 126h447v-125h-541l-1 -1h-158l1 1l96 125l172 223l79 102l96 124h-445v125h541h157l-97 -125l-174 -226l-79 -102z" />
    <glyph glyph-name="bracketleft" unicode="[" horiz-adv-x="352" 
d="M302 616h-128v-650h128v-125h-252v900h252v-125z" />
    <glyph glyph-name="backslash" unicode="\" horiz-adv-x="428" 
d="M287 305l91 -320h-130l-91 320l-35 125l-72 255h130l72 -255z" />
    <glyph glyph-name="bracketright" unicode="]" horiz-adv-x="352" 
d="M50 742h252v-900h-252v125h128v650h-128v125z" />
    <glyph glyph-name="underscore" unicode="_" 
d="M750 -183h-700v125h700v-125z" />
    <glyph glyph-name="a" unicode="a" horiz-adv-x="734" 
d="M660 125l64 -125h-140l-64 125l-153 300l-153 -300l-64 -125h-140l64 125l293 575z" />
    <glyph glyph-name="a" unicode="&#xe5;" horiz-adv-x="734" 
d="M660 125l64 -125h-140l-64 125l-153 300l-153 -300l-64 -125h-140l64 125l293 575z" />
    <glyph glyph-name="a" unicode="&#xe4;" horiz-adv-x="734" 
d="M660 125l64 -125h-140l-64 125l-153 300l-153 -300l-64 -125h-140l64 125l293 575z" />
    <glyph glyph-name="a" unicode="&#xe3;" horiz-adv-x="734" 
d="M660 125l64 -125h-140l-64 125l-153 300l-153 -300l-64 -125h-140l64 125l293 575z" />
    <glyph glyph-name="a" unicode="&#xe2;" horiz-adv-x="734" 
d="M660 125l64 -125h-140l-64 125l-153 300l-153 -300l-64 -125h-140l64 125l293 575z" />
    <glyph glyph-name="a" unicode="&#xe1;" horiz-adv-x="734" 
d="M660 125l64 -125h-140l-64 125l-153 300l-153 -300l-64 -125h-140l64 125l293 575z" />
    <glyph glyph-name="a" unicode="&#xe0;" horiz-adv-x="734" 
d="M660 125l64 -125h-140l-64 125l-153 300l-153 -300l-64 -125h-140l64 125l293 575z" />
    <glyph glyph-name="b" unicode="b" horiz-adv-x="775" 
d="M650 409q46 -31 73 -80t27 -106q0 -92 -65.5 -157.5t-157.5 -65.5h-477v0v700h441q78 0 133.5 -55.5t55.5 -133.5q0 -56 -30 -102zM175 575v-128h317q26 0 45 19t19 45t-19 45t-45 19h-317zM527 125v1q41 0 69.5 29t28.5 69t-28.5 69t-69.5 29h-352v-197h352z" />
    <glyph glyph-name="c" unicode="c" horiz-adv-x="790" 
d="M390 575q-93 0 -159 -66t-66 -159t66 -159t159 -66h350v-125h-350q-145 0 -247.5 102.5t-102.5 247.5t102.5 247.5t247.5 102.5h350v-125h-350z" />
    <glyph glyph-name="c" unicode="&#xe7;" horiz-adv-x="790" 
d="M390 575q-93 0 -159 -66t-66 -159t66 -159t159 -66h350v-125h-350q-145 0 -247.5 102.5t-102.5 247.5t102.5 247.5t247.5 102.5h350v-125h-350z" />
    <glyph glyph-name="d" unicode="d" 
d="M400 700l-1 -1q145 0 247.5 -102t102.5 -247q0 -129 -83 -226q-6 -7 -20 -21q-101 -103 -246 -103h-350v700h350zM399 124q93 0 159 66t66 159t-66 159t-159 66h-225v-450h225z" />
    <glyph glyph-name="e" unicode="e" 
d="M239 575q-26 0 -45 -19t-19 -45v-65h450v-125h-450v-132q0 -26 19 -45t45 -19h511v-125h-511q-78 0 -133 55.5t-55 133.5v322q0 78 55 133.5t133 55.5h511v-125h-511z" />
    <glyph glyph-name="e" unicode="&#xeb;" 
d="M239 575q-26 0 -45 -19t-19 -45v-65h450v-125h-450v-132q0 -26 19 -45t45 -19h511v-125h-511q-78 0 -133 55.5t-55 133.5v322q0 78 55 133.5t133 55.5h511v-125h-511z" />
    <glyph glyph-name="e" unicode="&#xea;" 
d="M239 575q-26 0 -45 -19t-19 -45v-65h450v-125h-450v-132q0 -26 19 -45t45 -19h511v-125h-511q-78 0 -133 55.5t-55 133.5v322q0 78 55 133.5t133 55.5h511v-125h-511z" />
    <glyph glyph-name="e" unicode="&#xe9;" 
d="M239 575q-26 0 -45 -19t-19 -45v-65h450v-125h-450v-132q0 -26 19 -45t45 -19h511v-125h-511q-78 0 -133 55.5t-55 133.5v322q0 78 55 133.5t133 55.5h511v-125h-511z" />
    <glyph glyph-name="e" unicode="&#xe8;" 
d="M239 575q-26 0 -45 -19t-19 -45v-65h450v-125h-450v-132q0 -26 19 -45t45 -19h511v-125h-511q-78 0 -133 55.5t-55 133.5v322q0 78 55 133.5t133 55.5h511v-125h-511z" />
    <glyph glyph-name="f" unicode="f" 
d="M239 700l512 1v-125h-511q-26 0 -45 -19t-19 -45v-65h450v-125h-451v-321h-124v510q0 78 55 133.5t133 55.5z" />
    <glyph glyph-name="g" unicode="g" 
d="M400 575q-93 0 -159 -66t-66 -159t66 -159t159 -66h225v134h-225v125h350v-384h-350q-145 0 -247.5 102.5t-102.5 247.5t102.5 247.5t247.5 102.5h350v-125h-350z" />
    <glyph glyph-name="h" unicode="h" 
d="M625 700h125v-700h-125v321h-450v-321h-125v700h125v-254h450v254z" />
    <glyph glyph-name="i" unicode="i" horiz-adv-x="225" 
d="M175 0h-125v700h125v-700z" />
    <glyph glyph-name="i" unicode="&#xef;" horiz-adv-x="225" 
d="M175 0h-125v700h125v-700z" />
    <glyph glyph-name="i" unicode="&#xee;" horiz-adv-x="225" 
d="M175 0h-125v700h125v-700z" />
    <glyph glyph-name="i" unicode="&#xed;" horiz-adv-x="225" 
d="M175 0h-125v700h125v-700z" />
    <glyph glyph-name="i" unicode="&#xec;" horiz-adv-x="225" 
d="M175 0h-125v700h125v-700z" />
    <glyph glyph-name="j" unicode="j" 
d="M625 700h125v-511q0 -78 -55.5 -133t-133.5 -55h-322q-78 0 -133.5 55t-55.5 133v131h125v-131q0 -26 19 -45t45 -19h322q26 0 45 19t19 45v511z" />
    <glyph glyph-name="k" unicode="k" 
d="M750 700l-306 -281l303 -419h-154l-242 334l-177 -161v-173h-125v700h125v-358l103 94l93 85l195 179h185z" />
    <glyph glyph-name="l" unicode="l" horiz-adv-x="677" 
d="M260 125l367 -1v-125h-355q-52 0 -98 23q-69 34 -101 102q-23 46 -23 98v477h125v-489q5 -33 28.5 -57t56.5 -28z" />
    <glyph glyph-name="m" unicode="m" 
d="M625 604l125 96v-700h-125v446l-123 -94l-102 -79l-102 79l-123 94v-446h-125v700l125 -96l225 -173z" />
    <glyph glyph-name="n" unicode="n" 
d="M625 700l125 -1v-700l-125 96l-450 347v-443h-125v698l125 -96l450 -347v446z" />
    <glyph glyph-name="n" unicode="&#xf1;" 
d="M625 700l125 -1v-700l-125 96l-450 347v-443h-125v698l125 -96l450 -347v446z" />
    <glyph glyph-name="o" unicode="o" horiz-adv-x="752" 
d="M376 700q145 0 247.5 -102.5t102.5 -247.5t-102.5 -247.5t-247.5 -102.5t-247.5 102.5t-102.5 247.5t102.5 247.5t247.5 102.5zM376 125q93 0 159 66t66 159t-66 159t-159 66t-159 -66t-66 -159t66 -159t159 -66z" />
    <glyph glyph-name="o" unicode="&#xf8;" horiz-adv-x="752" 
d="M376 700q145 0 247.5 -102.5t102.5 -247.5t-102.5 -247.5t-247.5 -102.5t-247.5 102.5t-102.5 247.5t102.5 247.5t247.5 102.5zM376 125q93 0 159 66t66 159t-66 159t-159 66t-159 -66t-66 -159t66 -159t159 -66z" />
    <glyph glyph-name="o" unicode="&#xf6;" horiz-adv-x="752" 
d="M376 700q145 0 247.5 -102.5t102.5 -247.5t-102.5 -247.5t-247.5 -102.5t-247.5 102.5t-102.5 247.5t102.5 247.5t247.5 102.5zM376 125q93 0 159 66t66 159t-66 159t-159 66t-159 -66t-66 -159t66 -159t159 -66z" />
    <glyph glyph-name="o" unicode="&#xf5;" horiz-adv-x="752" 
d="M376 700q145 0 247.5 -102.5t102.5 -247.5t-102.5 -247.5t-247.5 -102.5t-247.5 102.5t-102.5 247.5t102.5 247.5t247.5 102.5zM376 125q93 0 159 66t66 159t-66 159t-159 66t-159 -66t-66 -159t66 -159t159 -66z" />
    <glyph glyph-name="o" unicode="&#xf4;" horiz-adv-x="752" 
d="M376 700q145 0 247.5 -102.5t102.5 -247.5t-102.5 -247.5t-247.5 -102.5t-247.5 102.5t-102.5 247.5t102.5 247.5t247.5 102.5zM376 125q93 0 159 66t66 159t-66 159t-159 66t-159 -66t-66 -159t66 -159t159 -66z" />
    <glyph glyph-name="o" unicode="&#xf3;" horiz-adv-x="752" 
d="M376 700q145 0 247.5 -102.5t102.5 -247.5t-102.5 -247.5t-247.5 -102.5t-247.5 102.5t-102.5 247.5t102.5 247.5t247.5 102.5zM376 125q93 0 159 66t66 159t-66 159t-159 66t-159 -66t-66 -159t66 -159t159 -66z" />
    <glyph glyph-name="o" unicode="&#xf2;" horiz-adv-x="752" 
d="M376 700q145 0 247.5 -102.5t102.5 -247.5t-102.5 -247.5t-247.5 -102.5t-247.5 102.5t-102.5 247.5t102.5 247.5t247.5 102.5zM376 125q93 0 159 66t66 159t-66 159t-159 66t-159 -66t-66 -159t66 -159t159 -66z" />
    <glyph glyph-name="p" unicode="p" horiz-adv-x="730" 
d="M625 645l1 -1q55 -57 55 -134q0 -56 -30.5 -102.5t-79.5 -69.5q-25 -12 -54 -15h-6v-1h-335v-322h-125v700v0h441q78 0 133 -55zM519 452v1q38 17 38 58q0 27 -19 46q-18 18 -45 18h-317v-129h317q14 0 26 6z" />
    <glyph glyph-name="q" unicode="q" 
d="M750 350h-1q0 -127 -82 -225h82v-125h-346h-3q-145 0 -247.5 102.5t-102.5 247.5t102.5 247.5t247.5 102.5t247.5 -102.5t102.5 -247.5zM405 125q91 2 155 68t64 157q0 93 -66 159t-159 66t-159 -66t-66 -159t66 -159t159 -66h6z" />
    <glyph glyph-name="r" unicode="r" horiz-adv-x="730" 
d="M515 323l100 -200l64 -125h-140l-64 125l-67 131l-3 6q-37 60 -106 60h-125v-322h-125v700h442q78 0 133 -55t55 -133q0 -56 -30.5 -102.5t-79.5 -69.5q-25 -12 -54 -15zM174 444l317 1q14 0 26 6q38 17 38 58q0 27 -19 46q-18 18 -45 18h-317v-129z" />
    <glyph glyph-name="s" unicode="s" horiz-adv-x="762" 
d="M712 507l-125 -1v4q0 26 -19 45t-45 19h-284q-26 0 -45 -19t-19 -45v-4q0 -26 19 -45t45 -19h252q98 0 163 -72q2 -2 4.5 -5t3.5 -4q50 -61 50 -140q0 -91 -65 -156t-156 -65h-219q-92 0 -156.5 65t-64.5 156h125q0 -40 28 -68t68 -28h219q40 0 68.5 28t28.5 68t-28.5 68
t-68.5 28h-252q-76 0 -131 53q-14 14 -24 30q-33 47 -33 107v4q0 78 55 133.5t133 55.5h284q78 0 133.5 -55.5t55.5 -133.5v-4z" />
    <glyph glyph-name="s" unicode="&#xdf;" horiz-adv-x="762" 
d="M712 507l-125 -1v4q0 26 -19 45t-45 19h-284q-26 0 -45 -19t-19 -45v-4q0 -26 19 -45t45 -19h252q98 0 163 -72q2 -2 4.5 -5t3.5 -4q50 -61 50 -140q0 -91 -65 -156t-156 -65h-219q-92 0 -156.5 65t-64.5 156h125q0 -40 28 -68t68 -28h219q40 0 68.5 28t28.5 68t-28.5 68
t-68.5 28h-252q-76 0 -131 53q-14 14 -24 30q-33 47 -33 107v4q0 78 55 133.5t133 55.5h284q78 0 133.5 -55.5t55.5 -133.5v-4z" />
    <glyph glyph-name="t" unicode="t" 
d="M50 699h699v-125h-287v-575h-125v575h-287v125z" />
    <glyph glyph-name="u" unicode="u" 
d="M625 700h125v-350q0 -145 -102.5 -247.5t-247.5 -102.5t-247.5 102.5t-102.5 247.5v350h125v-350q0 -93 66 -159t159 -66t159 66t66 159v350z" />
    <glyph glyph-name="u" unicode="&#xfc;" 
d="M625 700h125v-350q0 -145 -102.5 -247.5t-247.5 -102.5t-247.5 102.5t-102.5 247.5v350h125v-350q0 -93 66 -159t159 -66t159 66t66 159v350z" />
    <glyph glyph-name="u" unicode="&#xfb;" 
d="M625 700h125v-350q0 -145 -102.5 -247.5t-247.5 -102.5t-247.5 102.5t-102.5 247.5v350h125v-350q0 -93 66 -159t159 -66t159 66t66 159v350z" />
    <glyph glyph-name="u" unicode="&#xfa;" 
d="M625 700h125v-350q0 -145 -102.5 -247.5t-247.5 -102.5t-247.5 102.5t-102.5 247.5v350h125v-350q0 -93 66 -159t159 -66t159 66t66 159v350z" />
    <glyph glyph-name="u" unicode="&#xf9;" 
d="M625 700h125v-350q0 -145 -102.5 -247.5t-247.5 -102.5t-247.5 102.5t-102.5 247.5v350h125v-350q0 -93 66 -159t159 -66t159 66t66 159v350z" />
    <glyph glyph-name="v" unicode="v" horiz-adv-x="734" 
d="M583 700h140l-64 -125l-293 -575l-293 575l-64 125h140l64 -125l153 -300l153 300z" />
    <glyph glyph-name="w" unicode="w" horiz-adv-x="978" 
d="M928 700l-164 -549l-45 -151v0l-92 128l-139 191l-138 -191l-92 -127v0l-45 150l-163 549h130l126 -422v0l106 147l20 28l57 78l57 -78l20 -28l106 -147l126 422h130z" />
    <glyph glyph-name="x" unicode="x" horiz-adv-x="750" 
d="M25 -3v2h2zM725 -1v-2l-1 2h1zM725 699h2l-271 -351l270 -349h-158l-191 247l-191 -247h-158l269 349l-271 351h158l192 -249l192 249h157z" />
    <glyph glyph-name="y" unicode="y" 
d="M592 701h157l-271 -351l-15 -19v-330h-125v328l-17 21l-271 351h158l192 -249zM49 -2v2h2zM749 -2l-1 2h1v-2z" />
    <glyph glyph-name="y" unicode="&#xff;" 
d="M592 701h157l-271 -351l-15 -19v-330h-125v328l-17 21l-271 351h158l192 -249zM49 -2v2h2zM749 -2l-1 2h1v-2z" />
    <glyph glyph-name="y" unicode="&#xfd;" 
d="M592 701h157l-271 -351l-15 -19v-330h-125v328l-17 21l-271 351h158l192 -249zM49 -2v2h2zM749 -2l-1 2h1v-2z" />
    <glyph glyph-name="z" unicode="z" 
d="M306 125h447v-125h-541l-1 -1h-158l1 1l96 125l172 223l79 102l96 124h-445v125h541h157l-97 -125l-174 -226l-79 -102z" />
    <glyph glyph-name="braceleft" unicode="{" horiz-adv-x="381" 
d="M274 -32l57 1v-125h-57q-14 0 -21 1q-54 8 -89.5 49t-35.5 96v223q-3 17 -21 17h-57v125h57q18 0 21 17v223q0 55 35.5 96t89.5 49q7 1 21 1h57v-125h-57q-18 0 -21 -17v-224q0 -14 -1 -21q-4 -33 -25 -62q21 -29 25 -62q1 -7 1 -21v-224q3 -17 21 -17z" />
    <glyph glyph-name="braceright" unicode="}" horiz-adv-x="381" 
d="M274 365l57 -2v-113v-11h-57q-18 0 -21 -17v-223q0 -55 -35.5 -96t-89.5 -49q-7 -1 -21 -1h-57v125h57q18 0 21 17v224q0 14 1 21q4 33 25 62q-21 29 -25 62q-1 7 -1 21v224q-3 17 -21 17h-57v125h57q14 0 21 -1q54 -8 89.5 -49t35.5 -96v-223q3 -17 21 -17z" />
    <glyph glyph-name="asciitilde" unicode="~" horiz-adv-x="591" 
d="M331 376h-2q26 -12 48 -16t37 -4.5t39 11t37.5 19.5t48.5 31v-123q-106 -87 -245 -34v0q-18 7 -35 15q-47 21 -81 20q-19 -1 -40.5 -10t-36.5 -18t-51 -33v0v123q66 54 139 55q47 1 107 -21v0q18 -7 35 -15z" />
    <glyph glyph-name="nonbreakingspace" unicode="&#xa0;" horiz-adv-x="487" 
 />
    <glyph glyph-name="sterling" unicode="&#xa3;" horiz-adv-x="753" 
d="M703 406h-125v89q0 26 -19 45t-45 19h-148q-26 0 -45 -19t-19 -45v-89h225v-125h-225v-172h402v-125h-527v297h-126v125h126v89q0 33 11 64q20 55 68.5 90t109.5 35h148q61 0 109.5 -35t68.5 -90q11 -31 11 -64v-89z" />
    <glyph glyph-name="softhyphen" unicode="&#xad;" horiz-adv-x="100" 
 />
    <glyph glyph-name="multiply" unicode="&#xd7;" horiz-adv-x="524" 
d="M474 454l-125 -124l124 -124l-88 -88l-123 124l-124 -124l-88 88l124 124l-124 124l88 88l124 -124l124 124z" />
    <glyph glyph-name="divide" unicode="&#xf7;" horiz-adv-x="574" 
d="M524 268h-474v125h474v-125zM350 443h-125v125h125v-125zM350 94h-125v125h125v-125z" />
    <glyph glyph-name="quoteleft" unicode="&#x2018;" horiz-adv-x="225" 
d="M175 625h1v-125h-125v250h62z" />
    <glyph glyph-name="quoteright" unicode="&#x2019;" horiz-adv-x="225" 
d="M50 750h124v-250h-62l-62 125v125z" />
    <glyph glyph-name="quotedblleft" unicode="&#x201c;" horiz-adv-x="384" 
d="M334 624h1v-125h-125v250h62zM113 749l63 -125v-125h-125v250h62z" />
    <glyph glyph-name="quotedblright" unicode="&#x201d;" horiz-adv-x="384" 
d="M50 624l-1 125h125v-250h-62zM209 749h124v-250h-62l-62 125v125z" />
    <glyph glyph-name="Euro" unicode="&#x20ac;" horiz-adv-x="770" 
d="M720 560h-222q-92 0 -158 -64h260v-125h-324q-3 -18 -3 -36t1 -27h326v-125h-268q67 -74 166 -74h222v-125h-222q-103 0 -187.5 54.5t-127.5 144.5h-132v125h98v27q0 24 1 36h-99v125h137q44 86 127 137.5t183 51.5h222v-125z" />
    </font>
</defs>
</svg>
